<?xml version="1.0" encoding="iso-8859-1"?>
<!-- Generator: Adobe Illustrator 19.0.0, SVG Export Plug-In . SVG Version: 6.00 Build 0)  -->
<svg version="1.1" id="Capa_1" xmlns="http://www.w3.org/2000/svg" xmlns:xlink="http://www.w3.org/1999/xlink" x="0px" y="0px"
	 viewBox="0 0 512 512" style="enable-background:new 0 0 512 512;" xml:space="preserve">
<path style="fill:#78B9EB;" d="M426.667,512H85.333C73.551,512,64,502.449,64,490.667V21.333C64,9.551,73.551,0,85.333,0h245.333
	L448,117.333v373.333C448,502.449,438.449,512,426.667,512z"/>
<path style="fill:#679FC9;" d="M330.667,0v96c0,11.782,9.551,21.333,21.333,21.333h96L330.667,0z"/>
<path style="fill:#E6E7E8;" d="M341.333,224c-1.216,0-2.4,0.128-3.605,0.181c-29.308-51.048-94.449-68.673-145.498-39.365
	c-30.111,17.287-49.914,48.159-53.073,82.736c-34.858,5.854-58.37,38.858-52.516,73.716c5.15,30.666,31.597,53.192,62.692,53.399
	h192c47.128,0,85.333-38.205,85.333-85.333S388.462,224,341.333,224z"/>
<g>
	<path style="fill:#FFFFFF;" d="M128,64h21.333v21.333H128V64z"/>
	<path style="fill:#FFFFFF;" d="M170.667,64h42.667v21.333h-42.667V64z"/>
	<path style="fill:#FFFFFF;" d="M128,106.667h85.333V128H128V106.667z"/>
</g>
<g>
</g>
<g>
</g>
<g>
</g>
<g>
</g>
<g>
</g>
<g>
</g>
<g>
</g>
<g>
</g>
<g>
</g>
<g>
</g>
<g>
</g>
<g>
</g>
<g>
</g>
<g>
</g>
<g>
</g>
</svg>
